<svg xmlns="http://www.w3.org/2000/svg" xmlns:xlink="http://www.w3.org/1999/xlink" width="221.107" height="164.457" viewBox="0 0 221.107 164.457">
  <defs>
    <linearGradient id="linear-gradient" x1="0.5" y1="1" x2="0.5" gradientUnits="objectBoundingBox">
      <stop offset="0" stop-color="gray" stop-opacity="0.251"/>
      <stop offset="0.54" stop-color="gray" stop-opacity="0.122"/>
      <stop offset="1" stop-color="gray" stop-opacity="0.102"/>
    </linearGradient>
  </defs>
  <g id="undraw_time_management_30iu" transform="translate(-0.007 -0.004)">
    <path id="Path_1368" data-name="Path 1368" d="M103.317,80.33a6.99,6.99,0,0,0-3.543,2.587,7.6,7.6,0,0,0-.556,4.61c1.3,13.611,4.721,28.087-1.188,40.417-2.868,5.982-7.666,10.775-11.482,16.207s-6.7,12.214-4.925,18.6c2.164,7.809,10.238,12.138,15.681,18.147,3.563,3.929,6.06,8.7,9.384,12.836s7.879,7.775,13.185,8.017c7.632.351,13.841-6.239,21.324-7.766,7.666-1.563,15.385,2.415,21.6,7.176s11.869,10.53,19.112,13.5c8,3.286,17.014,2.783,25.434,4.757,7.666,1.8,14.723,5.626,22.334,7.666s16.531,1.917,22.427-3.294c7.685-6.814,7.08-18.952,11.989-27.966,4.559-8.375,13.484-13.375,19.491-20.779,10.809-13.326,10.456-33.694,1.278-48.187s-25.8-23.268-42.8-25.553c-7.666-1.029-15.56-.888-22.93-3.228-19.727-6.261-31.467-28.692-51.607-33.36-12.8-2.962-25.253,2.168-36.158,8.482C121.9,78.689,113.168,76.244,103.317,80.33Z" transform="translate(-81.08 -63.86)" fill="#6c63ff" opacity="0.1"/>
    <path id="Path_1369" data-name="Path 1369" d="M174.253,347.69s-7.268,6.859-15.068,7.063a15.138,15.138,0,0,0-9.022,3.209,25.459,25.459,0,0,0-3.373,3.209" transform="translate(-132.792 -287.247)" fill="none" stroke="#535461" stroke-miterlimit="10" stroke-width="2"/>
    <path id="Path_1370" data-name="Path 1370" d="M118.921,410.7c1.048-.532,5.047-.179,5.047-.179s-2.074,3.439-3.122,3.971a2.129,2.129,0,1,1-1.917-3.793Z" transform="translate(-109.842 -336.611)" fill="#6c63ff"/>
    <path id="Path_1371" data-name="Path 1371" d="M135.12,383.226c1.169.124,4.333,2.594,4.333,2.594s-3.62,1.759-4.778,1.638a2.129,2.129,0,0,1,.445-4.231Z" transform="translate(-121.831 -315.212)" fill="#6c63ff"/>
    <path id="Path_1372" data-name="Path 1372" d="M178.1,358.908c.945.7,2.432,4.427,2.432,4.427s-4.005-.3-4.951-1a2.129,2.129,0,0,1,2.519-3.428Z" transform="translate(-154.833 -295.795)" fill="#6c63ff"/>
    <path id="Path_1373" data-name="Path 1373" d="M217.973,349.793c1.05.526,3.145,3.952,3.145,3.952s-4,.377-5.049-.149a2.129,2.129,0,1,1,1.9-3.8Z" transform="translate(-186.313 -288.684)" fill="#6c63ff"/>
    <path id="Path_1374" data-name="Path 1374" d="M158.77,395.126c.349-1.122-.673-5.006-.673-5.006s-3.041,2.623-3.39,3.746a2.129,2.129,0,1,0,4.063,1.261Z" transform="translate(-138.922 -320.641)" fill="#6c63ff"/>
    <path id="Path_1375" data-name="Path 1375" d="M204.465,385.094c0-1.175-2.14-4.574-2.14-4.574s-2.117,3.407-2.115,4.587a2.129,2.129,0,0,0,4.259-.013Z" transform="translate(-174.836 -313.086)" fill="#6c63ff"/>
    <path id="Path_1376" data-name="Path 1376" d="M247.718,366.64c.2-1.158-1.337-4.87-1.337-4.87s-2.664,3.007-2.858,4.165a2.129,2.129,0,0,0,4.2.707Z" transform="translate(-208.914 -298.328)" fill="#6c63ff"/>
    <path id="Path_1377" data-name="Path 1377" d="M241.452,181.119S232.7,176.31,230.1,168.945a15.138,15.138,0,0,0-5.828-7.6,25.463,25.463,0,0,0-4.1-2.215" transform="translate(-190.546 -138.839)" fill="none" stroke="#535461" stroke-miterlimit="10" stroke-width="2"/>
    <path id="Path_1378" data-name="Path 1378" d="M199.2,135.324c.828.833,1.721,4.749,1.721,4.749s-3.91-.916-4.738-1.75a2.129,2.129,0,0,1,3.017-3Z" transform="translate(-171.233 -119.665)" fill="#6c63ff"/>
    <path id="Path_1379" data-name="Path 1379" d="M229.99,140.8c.243,1.15-1.135,4.921-1.135,4.921s-2.783-2.894-3.026-4.046a2.129,2.129,0,1,1,4.163-.877Z" transform="translate(-194.947 -123.008)" fill="#6c63ff"/>
    <path id="Path_1380" data-name="Path 1380" d="M266.686,174.636c-.37,1.114-3.465,3.675-3.465,3.675s-.941-3.9-.571-5.019a2.132,2.132,0,0,1,4.046,1.344Z" transform="translate(-223.913 -148.837)" fill="#6c63ff"/>
    <path id="Path_1381" data-name="Path 1381" d="M287.4,210.114c-.177,1.161-2.794,4.208-2.794,4.208s-1.589-3.688-1.412-4.849a2.129,2.129,0,1,1,4.206.639Z" transform="translate(-240.143 -176.958)" fill="#6c63ff"/>
    <path id="Path_1382" data-name="Path 1382" d="M218.2,170.344c1.175-.013,4.557-2.181,4.557-2.181s-3.431-2.087-4.606-2.074a2.13,2.13,0,0,0,.049,4.259Z" transform="translate(-187.299 -144.317)" fill="#6c63ff"/>
    <path id="Path_1383" data-name="Path 1383" d="M240.729,210.96c1.116-.364,3.695-3.443,3.695-3.443s-3.9-.965-5.015-.6a2.129,2.129,0,1,0,1.32,4.046Z" transform="translate(-204.472 -176.385)" fill="#6c63ff"/>
    <path id="Path_1384" data-name="Path 1384" d="M271.782,246.271c1.163-.17,4.225-2.768,4.225-2.768s-3.68-1.61-4.84-1.439a2.129,2.129,0,1,0,.618,4.21Z" transform="translate(-229.179 -204.103)" fill="#6c63ff"/>
    <circle id="Ellipse_64" data-name="Ellipse 64" cx="77.086" cy="77.086" r="77.086" transform="translate(34.064 4.776)" fill="url(#linear-gradient)"/>
    <circle id="Ellipse_65" data-name="Ellipse 65" cx="75.808" cy="75.808" r="75.808" transform="translate(35.341 6.053)" fill="#6c63ff"/>
    <circle id="Ellipse_66" data-name="Ellipse 66" cx="60.263" cy="60.263" r="60.263" transform="translate(50.886 21.598)" fill="#dde1ec"/>
    <rect id="Rectangle_721" data-name="Rectangle 721" width="3.407" height="53.236" transform="translate(109.446 32.245)" fill="#535461" opacity="0.3"/>
    <g id="Group_592" data-name="Group 592" transform="translate(78.816 64.65)" opacity="0.1">
      <rect id="Rectangle_722" data-name="Rectangle 722" width="48.125" height="4.259" transform="translate(35.953 15.934)"/>
      <rect id="Rectangle_723" data-name="Rectangle 723" width="4.259" height="34.182" transform="translate(0 3.773) rotate(-62.36)"/>
      <circle id="Ellipse_67" data-name="Ellipse 67" cx="6.388" cy="6.388" r="6.388" transform="translate(25.945 11.675)"/>
    </g>
    <rect id="Rectangle_724" data-name="Rectangle 724" width="48.125" height="4.259" transform="translate(114.769 79.732)" fill="#535461"/>
    <rect id="Rectangle_725" data-name="Rectangle 725" width="34.182" height="4.259" transform="translate(80.807 63.803) rotate(27.64)" fill="#535461"/>
    <circle id="Ellipse_68" data-name="Ellipse 68" cx="6.388" cy="6.388" r="6.388" transform="translate(104.761 75.473)" fill="#535461"/>
    <g id="Group_593" data-name="Group 593" transform="translate(50.882 21.598)" opacity="0.1">
      <path id="Path_1385" data-name="Path 1385" d="M324.685,232.773a60.267,60.267,0,0,1,108.422-36.234,60.269,60.269,0,1,0-101,65.229A59.988,59.988,0,0,1,324.685,232.773Z" transform="translate(-320 -165.27)"/>
    </g>
    <path id="Path_1409" data-name="Path 1409" d="M809.449,313.09s-.777,1.848-.39,2.432" transform="translate(-653.95 -260.015)" opacity="0.05"/>
    <path id="Path_1411" data-name="Path 1411" d="M998.2,508.14a21.273,21.273,0,0,0-3.88,22.129c5.03,13.219-8.62,35.2-8.62,35.2s.147-.021.426-.068a25.939,25.939,0,0,0,17.214-39.7C999.548,519.92,996.443,513.14,998.2,508.14Z" transform="translate(-793.061 -413.53)" fill="#6c63ff"/>
    <path id="Path_1412" data-name="Path 1412" d="M998.2,508.84a21.273,21.273,0,0,0-3.88,22.129c5.03,13.219-8.62,35.2-8.62,35.2s.147-.021.426-.068a25.939,25.939,0,0,0,17.214-39.7C999.548,520.62,996.443,513.84,998.2,508.84Z" transform="translate(-793.061 -414.081)" opacity="0.1"/>
    <path id="Path_1413" data-name="Path 1413" d="M998.192,508.14s-5.03,10.92,0,19.829.852,33.911-12.5,37.5" transform="translate(-793.053 -413.53)" fill="none" stroke="#535461" stroke-miterlimit="10" stroke-width="1"/>
    <path id="Path_1414" data-name="Path 1414" d="M1005.647,676.949s-10.166-1.618-11.092,7.491S975,694.813,975,694.813l.349.232c15.374,10.094,30.074,6.429,27.857-6.974C1002.389,683.09,1002.457,678.086,1005.647,676.949Z" transform="translate(-784.64 -546.305)" fill="#6c63ff"/>
    <path id="Path_1415" data-name="Path 1415" d="M1005.678,677.36s-7.892,1.731-7.24,8.907-11.712,15.777-23.4,8.959" transform="translate(-784.671 -546.716)" fill="none" stroke="#535461" stroke-miterlimit="10" stroke-width="1"/>
    <path id="Path_1416" data-name="Path 1416" d="M960.732,733.752s-8.007-1.6-10.142-3.737-11.744-5.871-12.811-3.194-14.412,11.744-5.339,13.345,21.352,2.129,24.02,1.065S960.732,733.752,960.732,733.752Z" transform="translate(-748.668 -584.911)" fill="#a8a8a8"/>
    <path id="Path_1417" data-name="Path 1417" d="M932.448,768.013c9.076,1.6,21.352,2.129,24.02,1.065,2.034-.813,3.446-4.719,4-6.537l.266.055s-1.6,6.405-4.27,7.472-14.947.534-24.02-1.065c-2.619-.462-3.369-1.548-3.086-2.922C929.584,766.978,930.5,767.668,932.448,768.013Z" transform="translate(-748.676 -613.757)" opacity="0.2"/>
  </g>
</svg>
