<?xml version="1.0" encoding="iso-8859-1"?>
<!-- Generator: Adobe Illustrator 19.0.0, SVG Export Plug-In . SVG Version: 6.00 Build 0)  -->
<svg xmlns="http://www.w3.org/2000/svg" xmlns:xlink="http://www.w3.org/1999/xlink" version="1.1" id="Layer_1" x="0px" y="0px" viewBox="0 0 476.12 476.12" style="enable-background:new 0 0 476.12 476.12;" xml:space="preserve" width="512" height="512">
<g>
	<path style="fill:#3B9AD6;" d="M465.73,189.26v271.86c0,8.29-6.72,15-15,15H25.39c-8.28,0-15-6.71-15-15V189.26   c0-4.5,2.02-8.75,5.5-11.6L228.55,3.41c2.8-2.28,6.16-3.41,9.51-3.41c3.39,0,6.76,1.16,9.51,3.41l212.66,174.25   C463.71,180.51,465.73,184.76,465.73,189.26z"/>
	<path style="fill:#2880BD;" d="M465.73,189.26v271.86c0,8.29-6.72,15-15,15H238.06V0c3.39,0,6.76,1.16,9.51,3.41l212.66,174.25   C463.71,180.51,465.73,184.76,465.73,189.26z"/>
	<path style="fill:#F48558;" d="M406.07,353.375v46.65h-94.64v-68.58c0-3.57-2.89-6.46-6.46-6.46H171.15   c-3.57,0-6.46,2.89-6.46,6.46v68.58H70.05v-46.65c0-86.53,79.96-109.43,166.36-109.71c0.55-0.01,1.1-0.01,1.65-0.01   C325.14,243.655,406.07,266.325,406.07,353.375z"/>
	<path style="fill:#F0652B;" d="M406.07,353.375v46.65h-94.64v-68.58c0-3.57-2.89-6.46-6.46-6.46h-66.91v-81.33   C325.14,243.655,406.07,266.325,406.07,353.375z"/>
	<path style="fill:#FFE6B9;" d="M70.049,367.645v33.775c0,7.058,5.721,12.779,12.779,12.779h69.078   c7.058,0,12.779-5.722,12.779-12.779v-33.775H70.049z"/>
	<path style="fill:#FFCD76;" d="M311.435,367.645v33.774c0,7.058,5.721,12.779,12.779,12.779h69.078   c7.058,0,12.779-5.721,12.779-12.779l0-33.774H311.435z"/>
	<path style="fill:#FFE6B9;" d="M259.83,189.475c0,8.29-6.72,15-15,15h-13.54c-8.28,0-15-6.71-15-15c0-8.28,6.72-15,15-15h13.54   C253.11,174.475,259.83,181.195,259.83,189.475z"/>
	<path style="fill:#FFCD76;" d="M259.83,189.475c0,8.29-6.72,15-15,15h-6.77v-30h6.77C253.11,174.475,259.83,181.195,259.83,189.475   z"/>
	<path style="fill:#FFE6B9;" d="M280.47,164.86c-5.86,5.85-15.36,5.85-21.22,0c-5.84-5.84-13.51-8.77-21.19-8.77   c-0.55,0-1.1,0.02-1.65,0.05c-7.12,0.38-14.12,3.29-19.54,8.72c-5.86,5.85-15.36,5.86-21.22,0c-5.86-5.86-5.86-15.36,0-21.22   c11.27-11.27,25.95-17.1,40.76-17.5c0.55-0.02,1.1-0.02,1.65-0.02c15.35-0.02,30.72,5.83,42.41,17.52   C286.33,149.5,286.33,159,280.47,164.86z"/>
	<path style="fill:#FFCD76;" d="M280.47,164.86c-5.86,5.85-15.36,5.85-21.22,0c-5.84-5.84-13.51-8.77-21.19-8.77v-29.97   c15.35-0.02,30.72,5.83,42.41,17.52C286.33,149.5,286.33,159,280.47,164.86z"/>
	<path style="fill:#FFE6B9;" d="M301.28,127.88c-5.86,5.86-15.36,5.86-21.22,0c-11.58-11.58-26.79-17.37-42-17.37   s-30.42,5.79-42,17.37c-5.86,5.86-15.36,5.86-21.22,0c-5.85-5.85-5.85-15.35,0-21.21c17.42-17.43,40.32-26.15,63.22-26.15   s45.8,8.72,63.22,26.15C307.13,112.53,307.13,122.03,301.28,127.88z"/>
	<path style="fill:#FFCD76;" d="M301.28,127.88c-5.86,5.86-15.36,5.86-21.22,0c-11.58-11.58-26.79-17.37-42-17.37V80.52   c22.9,0,45.8,8.72,63.22,26.15C307.13,112.53,307.13,122.03,301.28,127.88z"/>
</g>















</svg>
