<svg id="Capa_1" enable-background="new 0 0 512 512" height="512" viewBox="0 0 512 512" width="512" xmlns="http://www.w3.org/2000/svg"><g><g><path d="m450.686 349.167v.237c0 37.759-31.879 68.595-69.658 68.595h-250.056c-37.862 0-69.792-30.971-69.658-68.833 11.916-9.842 21.314-22.088 27.742-35.726 6.427-13.649 9.873-28.701 9.873-44.145v-112.224c0-86.742 70.318-157.071 157.071-157.071h.021c43.361.01 82.626 17.58 111.048 46.012 28.422 28.422 46.002 67.687 46.002 111.059v112.225c0 30.898 13.794 60.187 37.615 79.871z" fill="#714b55"/></g><path d="m450.686 349.167v.237c0 37.759-31.879 68.595-69.658 68.595h-125.007v-417.999c43.361.01 82.626 17.58 111.048 46.012 28.422 28.422 46.002 67.687 46.002 111.059v112.225c0 30.898 13.794 60.187 37.615 79.871z" fill="#5c344b"/><path d="m512 512h-103.29l-15-15-15 15h-245.42l-15-15-15 15h-103.29c0-33.79 20.9-64.05 52.5-76.02l81.37-30.82 122.15.01 122.15.01 81.33 30.8c15.8 5.98 28.92 16.54 38.1 29.83 9.18 13.28 14.4 29.29 14.4 46.19z" fill="#ff738e"/><path d="m512 512h-103.29l-15-15-15 15h-122.69v-106.83l122.15.01 81.33 30.8c15.8 5.98 28.92 16.54 38.1 29.83 9.18 13.28 14.4 29.29 14.4 46.19z" fill="#ff3b62"/><path d="m103.286 469.333h30v42.667h-30z" fill="#ffa7b7"/><path d="m378.714 469.333h30v42.667h-30z" fill="#ff738e"/><path d="m378.17 405.18c-34.98 30.56-78.56 45.85-122.15 45.85s-87.17-15.29-122.15-45.87l48.99-18.55 17-55.24h112.28l17 55.24z" fill="#ffbfab"/><path d="m378.17 405.18c-34.98 30.56-78.56 45.85-122.15 45.85v-119.66h56.12l17 55.24z" fill="#eaa492"/><path d="m427.889 214.194c0 27.469-22.261 49.73-49.73 49.73h-21.684v.567c0 29.532-11.248 56.273-29.425 75.626-18.188 19.353-43.293 31.318-71.029 31.328-.011 0-.011 0-.021 0-55.493 0-100.475-47.891-100.475-106.955v-.567h-21.684c-13.74 0-26.164-5.571-35.167-14.563-9.003-9.003-14.563-21.438-14.563-35.167 0-27.458 22.261-49.719 49.73-49.719h21.684c0-14.157 5.742-26.987 15.023-36.268s22.09-15.023 36.257-15.023c13.846 15.771 30.655 28.292 49.217 37.006 19.823 9.302 41.657 14.285 64.057 14.285h58.08c13.74 0 26.164 5.56 35.167 14.563 9.003 9.004 14.563 21.428 14.563 35.157z" fill="#ffcebf"/><path d="m427.889 214.194c0 27.469-22.261 49.73-49.73 49.73h-21.684v.567c0 29.532-11.248 56.273-29.425 75.626-18.188 19.353-43.293 31.318-71.029 31.328v-221.255c19.823 9.302 41.657 14.285 64.057 14.285h58.08c13.74 0 26.164 5.56 35.167 14.563 9.004 9.003 14.564 21.427 14.564 35.156z" fill="#ffbfab"/></g></svg>