<svg height="512" viewBox="0 0 512 512" width="512" xmlns="http://www.w3.org/2000/svg" xmlns:xlink="http://www.w3.org/1999/xlink"><linearGradient id="New_Gradient_Swatch_5" gradientUnits="userSpaceOnUse" x1="138" x2="506" y1="66" y2="66"><stop offset=".011" stop-color="#f8c73f"/><stop offset="1" stop-color="#fada7f"/></linearGradient><linearGradient id="New_Gradient_Swatch_20" gradientUnits="userSpaceOnUse" x1="48.366" x2="467.864" y1="256" y2="256"><stop offset=".011" stop-color="#fce6aa"/><stop offset="1" stop-color="#fdf3d4"/></linearGradient><linearGradient id="New_Gradient_Swatch_5-2" x1="5" x2="381.283" xlink:href="#New_Gradient_Swatch_5" y1="456" y2="456"/><linearGradient id="New_Gradient_Swatch_13" gradientUnits="userSpaceOnUse" x1="182.495" x2="329.505" y1="353.505" y2="206.495"><stop offset="0" stop-color="#d46669"/><stop offset="1" stop-color="#dd888a"/></linearGradient><g id="_11-grade" data-name="11-grade"><g id="gradient"><path d="m464 16h-316a10 10 0 0 0 0 20 22.025 22.025 0 0 1 22 22v48a10 10 0 0 0 10 10h316a10 10 0 0 0 10-10v-48a42.047 42.047 0 0 0 -42-42z" fill="url(#New_Gradient_Swatch_5)"/><path d="m126 16a42.047 42.047 0 0 0 -42 42v396a42.01 42.01 0 0 1 -35.634 41.52l333.634.48a42 42 0 0 0 42-42v-396a42.047 42.047 0 0 1 42-42z" fill="url(#New_Gradient_Swatch_20)"/><path d="m344 454v-26a12 12 0 0 0 -12-12h-315a12 12 0 0 0 -12 12v26a42 42 0 0 0 42 42h332a9.99 9.99 0 0 0 2.283-.272 42.055 42.055 0 0 1 -37.283-41.728z" fill="url(#New_Gradient_Swatch_5-2)"/><circle cx="256" cy="280" fill="url(#New_Gradient_Swatch_13)" r="104"/><path d="m255.174 220.424a44.05 44.05 0 0 0 -44 44v64a12 12 0 0 0 24 0v-20h40v20a12 12 0 0 0 24 0v-64a44.05 44.05 0 0 0 -44-44zm-20 64v-20a20 20 0 0 1 40 0v20z" fill="#faeeee"/><path d="m385 108h-20v-20a12 12 0 0 0 -24 0v20h-20a12 12 0 0 0 0 24h20v20a12 12 0 0 0 24 0v-20h20a12 12 0 0 0 0-24z" fill="#d97779"/><g fill="#f9cd55"><path d="m288 100h-160a12 12 0 0 1 0-24h160a12 12 0 0 1 0 24z"/><path d="m200 148h-72a12 12 0 0 1 0-24h72a12 12 0 0 1 0 24z"/></g></g></g></svg>